HIERARCHY
ROOT newVegas:Hips
{
	OFFSET 0.000000 96.479958 0.000000
	CHANNELS 6 Xposition Yposition Zposition Xrotation Yrotation Zrotation
	JOINT newVegas:Pelvis
	{
		OFFSET 0.000000 0.000000 0.000000
		CHANNELS 3 Xrotation Yrotation Zrotation
		JOINT newVegas:LeftUpLeg
		{
			OFFSET 18.735201 -5.666702 -4.541200
			CHANNELS 3 Xrotation Yrotation Zrotation
			JOINT newVegas:LeftLeg
			{
				OFFSET -0.021200 -31.938179 0.493100
				CHANNELS 3 Xrotation Yrotation Zrotation
				JOINT newVegas:LeftFoot
				{
					OFFSET 0.021200 -31.938179 -4.336299
					CHANNELS 3 Xrotation Yrotation Zrotation
					JOINT newVegas:LeftToeBase
					{
						OFFSET 0.943001 -26.722000 15.023500
						CHANNELS 3 Xrotation Yrotation Zrotation
						End Site
						{
							OFFSET 0.000000 30.670183 0.000000
						}
					}
				}
				JOINT newVegas:Left_PantLeg
				{
					OFFSET 0.663870 -9.044666 -1.108900
					CHANNELS 3 Xrotation Yrotation Zrotation
					End Site
					{
						OFFSET 1.415995 20.635357 0.000000
					}
				}
			}
		}
		JOINT newVegas:RightUpLeg
		{
			OFFSET -18.735201 -5.666702 -4.541200
			CHANNELS 3 Xrotation Yrotation Zrotation
			JOINT newVegas:RightLeg
			{
				OFFSET 0.018946 -31.938133 0.493100
				CHANNELS 3 Xrotation Yrotation Zrotation
				JOINT newVegas:RightFoot
				{
					OFFSET -0.018946 -31.938126 -4.336299
					CHANNELS 3 Xrotation Yrotation Zrotation
					JOINT newVegas:RightToeBase
					{
						OFFSET -0.943001 -26.722004 15.023500
						CHANNELS 3 Xrotation Yrotation Zrotation
						End Site
						{
							OFFSET 0.000000 30.670187 0.000000
						}
					}
				}
				JOINT newVegas:Right_PantLeg
				{
					OFFSET -0.661674 -9.044716 -1.108900
					CHANNELS 3 Xrotation Yrotation Zrotation
					End Site
					{
						OFFSET -1.415958 20.635269 0.000000
					}
				}
			}
		}
	}
	JOINT newVegas:Spine
	{
		OFFSET 0.000000 10.199997 -0.299500
		CHANNELS 3 Xrotation Yrotation Zrotation
		JOINT newVegas:Spine1
		{
			OFFSET 0.000000 11.900002 -1.516600
			CHANNELS 3 Xrotation Yrotation Zrotation
			JOINT newVegas:Spine2
			{
				OFFSET 0.000000 13.600006 -2.842500
				CHANNELS 3 Xrotation Yrotation Zrotation
				JOINT newVegas:Neck
				{
					OFFSET 0.000000 9.624100 -2.890100
					CHANNELS 3 Xrotation Yrotation Zrotation
					JOINT newVegas:Head
					{
						OFFSET 0.000000 14.068802 -1.351900
						CHANNELS 3 Xrotation Yrotation Zrotation
						JOINT newVegas:Hair_Back
						{
							OFFSET 0.000000 3.231903 -17.524799
							CHANNELS 3 Xrotation Yrotation Zrotation
							End Site
							{
								OFFSET 0.000000 19.849884 0.000000
							}
						}
						JOINT newVegas:Hair_Front
						{
							OFFSET 0.000000 31.260406 4.573800
							CHANNELS 3 Xrotation Yrotation Zrotation
							JOINT newVegas:Hair_Front1
							{
								OFFSET 0.000000 2.284103 11.993300
								CHANNELS 3 Xrotation Yrotation Zrotation
								JOINT newVegas:Hair_Front2
								{
									OFFSET 0.000000 2.284103 11.993300
									CHANNELS 3 Xrotation Yrotation Zrotation
									End Site
									{
										OFFSET 0.000000 12.208862 0.000000
									}
								}
							}
						}
						JOINT newVegas:Jowel
						{
							OFFSET 0.000000 -7.458206 6.864100
							CHANNELS 3 Xrotation Yrotation Zrotation
							End Site
							{
								OFFSET 0.000000 19.849884 0.000000
							}
						}
					}
				}
				JOINT newVegas:LeftShoulder
				{
					OFFSET 15.263000 10.923401 -0.547700
					CHANNELS 3 Xrotation Yrotation Zrotation
					JOINT newVegas:LeftArm
					{
						OFFSET 25.438599 -2.830597 -13.032500
						CHANNELS 3 Xrotation Yrotation Zrotation
						JOINT newVegas:LeftForeArm
						{
							OFFSET 29.960503 0.000000 0.000000
							CHANNELS 3 Xrotation Yrotation Zrotation
							JOINT newVegas:LeftHand
							{
								OFFSET 27.849251 0.000000 0.000000
								CHANNELS 3 Xrotation Yrotation Zrotation
								JOINT newVegas:LeftHandThumb1
								{
									OFFSET 4.487587 -3.305161 6.305391
									CHANNELS 3 Xrotation Yrotation Zrotation
									JOINT newVegas:LeftHandThumb2
									{
										OFFSET 5.480453 -3.164139 3.164143
										CHANNELS 3 Xrotation Yrotation Zrotation
										JOINT newVegas:LeftHandThumb3
										{
											OFFSET 5.159721 -2.978973 2.978967
											CHANNELS 3 Xrotation Yrotation Zrotation
											End Site
											{
												OFFSET 2.494507 5.926697 1.738678
											}
										}
									}
								}
								JOINT newVegas:LeftHandIndex1
								{
									OFFSET 18.578728 -0.527832 5.208049
									CHANNELS 3 Xrotation Yrotation Zrotation
									JOINT newVegas:LeftHandIndex2
									{
										OFFSET 3.192009 0.000000 0.000000
										CHANNELS 3 Xrotation Yrotation Zrotation
										JOINT newVegas:LeftHandIndex3
										{
											OFFSET 3.835129 0.000000 0.000000
											CHANNELS 3 Xrotation Yrotation Zrotation
											End Site
											{
												OFFSET -0.034599 3.816971 0.371180
											}
										}
									}
								}
								JOINT newVegas:LeftHandMiddle1
								{
									OFFSET 18.476105 0.000000 0.000000
									CHANNELS 3 Xrotation Yrotation Zrotation
									JOINT newVegas:LeftHandMiddle2
									{
										OFFSET 3.324875 0.000000 0.000000
										CHANNELS 3 Xrotation Yrotation Zrotation
										JOINT newVegas:LeftHandMiddle3
										{
											OFFSET 4.596550 0.000000 0.000000
											CHANNELS 3 Xrotation Yrotation Zrotation
											End Site
											{
												OFFSET 0.057701 4.578827 0.399218
											}
										}
									}
								}
								JOINT newVegas:LeftHandRing1
								{
									OFFSET 17.732719 0.121887 -4.201567
									CHANNELS 3 Xrotation Yrotation Zrotation
									JOINT newVegas:LeftHandRing2
									{
										OFFSET 2.733170 0.000000 0.000000
										CHANNELS 3 Xrotation Yrotation Zrotation
										JOINT newVegas:LeftHandRing3
										{
											OFFSET 3.178268 0.000000 0.000000
											CHANNELS 3 Xrotation Yrotation Zrotation
											End Site
											{
												OFFSET 0.119102 3.170624 0.185394
											}
										}
									}
								}
								JOINT newVegas:LeftHandPinky1
								{
									OFFSET 15.989624 -0.606689 -7.535461
									CHANNELS 3 Xrotation Yrotation Zrotation
									JOINT newVegas:LeftHandPinky2
									{
										OFFSET 2.538986 0.000000 0.000000
										CHANNELS 3 Xrotation Yrotation Zrotation
										JOINT newVegas:LeftHandPinky3
										{
											OFFSET 2.593102 0.000000 0.000000
											CHANNELS 3 Xrotation Yrotation Zrotation
											End Site
											{
												OFFSET -0.150902 2.584198 0.152708
											}
										}
									}
								}
							}
							JOINT newVegas:Left_Sleeve
							{
								OFFSET 0.267448 -0.649796 0.577675
								CHANNELS 3 Xrotation Yrotation Zrotation
								End Site
								{
									OFFSET 0.000000 15.991241 0.000000
								}
							}
							JOINT newVegas:Left_CapeC
							{
								OFFSET 15.715958 -8.608795 -6.935905
								CHANNELS 3 Xrotation Yrotation Zrotation
								JOINT newVegas:Left_CapeC1
								{
									OFFSET 0.000000 -8.688499 0.000000
									CHANNELS 3 Xrotation Yrotation Zrotation
									End Site
									{
										OFFSET 0.000000 8.688499 0.000000
									}
								}
							}
						}
						JOINT newVegas:Left_CapeB
						{
							OFFSET 26.118385 -8.608795 -7.079235
							CHANNELS 3 Xrotation Yrotation Zrotation
							JOINT newVegas:Left_CapeB1
							{
								OFFSET 0.000000 -8.688499 0.000000
								CHANNELS 3 Xrotation Yrotation Zrotation
								End Site
								{
									OFFSET 0.000000 8.688499 0.000000
								}
							}
						}
						JOINT newVegas:Left_CapeA
						{
							OFFSET 5.115639 -8.608795 -10.395809
							CHANNELS 3 Xrotation Yrotation Zrotation
							JOINT newVegas:Left_CapeA1
							{
								OFFSET 0.000000 -8.688499 0.000000
								CHANNELS 3 Xrotation Yrotation Zrotation
								End Site
								{
									OFFSET 0.000000 8.688499 0.000000
								}
							}
						}
					}
				}
				JOINT newVegas:RightShoulder
				{
					OFFSET -15.263000 10.923401 -0.547700
					CHANNELS 3 Xrotation Yrotation Zrotation
					JOINT newVegas:RightArm
					{
						OFFSET -25.438599 -2.830597 -13.032500
						CHANNELS 3 Xrotation Yrotation Zrotation
						JOINT newVegas:RightForeArm
						{
							OFFSET -29.960503 0.000000 0.000000
							CHANNELS 3 Xrotation Yrotation Zrotation
							JOINT newVegas:RightHand
							{
								OFFSET -27.849251 0.000000 0.000000
								CHANNELS 3 Xrotation Yrotation Zrotation
								JOINT newVegas:RightHandThumb1
								{
									OFFSET -4.487587 -3.305161 6.305391
									CHANNELS 3 Xrotation Yrotation Zrotation
									JOINT newVegas:RightHandThumb2
									{
										OFFSET -5.480453 -3.164139 3.164143
										CHANNELS 3 Xrotation Yrotation Zrotation
										JOINT newVegas:RightHandThumb3
										{
											OFFSET -5.159721 -2.978973 2.978967
											CHANNELS 3 Xrotation Yrotation Zrotation
											End Site
											{
												OFFSET -2.494507 5.926697 1.738678
											}
										}
									}
								}
								JOINT newVegas:RightHandIndex1
								{
									OFFSET -18.578728 -0.527832 5.208049
									CHANNELS 3 Xrotation Yrotation Zrotation
									JOINT newVegas:RightHandIndex2
									{
										OFFSET -3.192009 0.000000 0.000000
										CHANNELS 3 Xrotation Yrotation Zrotation
										JOINT newVegas:RightHandIndex3
										{
											OFFSET -3.835129 0.000000 0.000000
											CHANNELS 3 Xrotation Yrotation Zrotation
											End Site
											{
												OFFSET 0.034599 3.816971 0.371180
											}
										}
									}
								}
								JOINT newVegas:RightHandMiddle1
								{
									OFFSET -18.476105 0.000000 0.000000
									CHANNELS 3 Xrotation Yrotation Zrotation
									JOINT newVegas:RightHandMiddle2
									{
										OFFSET -3.324875 0.000000 0.000000
										CHANNELS 3 Xrotation Yrotation Zrotation
										JOINT newVegas:RightHandMiddle3
										{
											OFFSET -4.596550 0.000000 0.000000
											CHANNELS 3 Xrotation Yrotation Zrotation
											End Site
											{
												OFFSET -0.057701 4.578827 0.399218
											}
										}
									}
								}
								JOINT newVegas:RightHandRing1
								{
									OFFSET -17.732719 0.121887 -4.201567
									CHANNELS 3 Xrotation Yrotation Zrotation
									JOINT newVegas:RightHandRing2
									{
										OFFSET -2.733170 0.000000 0.000000
										CHANNELS 3 Xrotation Yrotation Zrotation
										JOINT newVegas:RightHandRing3
										{
											OFFSET -3.178268 0.000000 0.000000
											CHANNELS 3 Xrotation Yrotation Zrotation
											End Site
											{
												OFFSET -0.119102 3.170624 0.185394
											}
										}
									}
								}
								JOINT newVegas:RightHandPinky1
								{
									OFFSET -15.989624 -0.606689 -7.535461
									CHANNELS 3 Xrotation Yrotation Zrotation
									JOINT newVegas:RightHandPinky2
									{
										OFFSET -2.538986 0.000000 0.000000
										CHANNELS 3 Xrotation Yrotation Zrotation
										JOINT newVegas:RightHandPinky3
										{
											OFFSET -2.593102 0.000000 0.000000
											CHANNELS 3 Xrotation Yrotation Zrotation
											End Site
											{
												OFFSET 0.150902 2.584198 0.152708
											}
										}
									}
								}
							}
							JOINT newVegas:Right_CapeC
							{
								OFFSET -15.715958 -8.608795 -6.935905
								CHANNELS 3 Xrotation Yrotation Zrotation
								JOINT newVegas:Right_CapeC1
								{
									OFFSET 0.000000 -8.688499 0.000000
									CHANNELS 3 Xrotation Yrotation Zrotation
									End Site
									{
										OFFSET 0.000000 8.688499 0.000000
									}
								}
							}
							JOINT newVegas:Right_Sleeve
							{
								OFFSET -0.267448 -0.649994 0.577675
								CHANNELS 3 Xrotation Yrotation Zrotation
								End Site
								{
									OFFSET 0.000000 15.991302 0.000000
								}
							}
						}
						JOINT newVegas:Right_CapeA
						{
							OFFSET -5.115540 -8.608795 -10.395824
							CHANNELS 3 Xrotation Yrotation Zrotation
							JOINT newVegas:Right_CapeA1
							{
								OFFSET 0.000000 -8.688499 0.000000
								CHANNELS 3 Xrotation Yrotation Zrotation
								End Site
								{
									OFFSET 0.000000 8.688499 0.000000
								}
							}
						}
						JOINT newVegas:Right_CapeB
						{
							OFFSET -26.118187 -8.608795 -7.079266
							CHANNELS 3 Xrotation Yrotation Zrotation
							JOINT newVegas:Right_CapeB1
							{
								OFFSET 0.000000 -8.688499 0.000000
								CHANNELS 3 Xrotation Yrotation Zrotation
								End Site
								{
									OFFSET 0.000000 8.688499 0.000000
								}
							}
						}
					}
				}
				JOINT newVegas:Left_Collar
				{
					OFFSET 18.625099 8.655502 8.828100
					CHANNELS 3 Xrotation Yrotation Zrotation
					JOINT newVegas:Left_Collar1
					{
						OFFSET 14.783401 10.540405 -1.259500
						CHANNELS 3 Xrotation Yrotation Zrotation
						End Site
						{
							OFFSET 0.000000 18.199875 0.000000
						}
					}
				}
				JOINT newVegas:Collar_Back
				{
					OFFSET 0.000000 15.630707 -20.132601
					CHANNELS 3 Xrotation Yrotation Zrotation
					End Site
					{
						OFFSET 0.000000 22.523010 0.000000
					}
				}
				JOINT newVegas:Left_Peck
				{
					OFFSET 17.239599 -5.132599 25.482599
					CHANNELS 3 Xrotation Yrotation Zrotation
					End Site
					{
						OFFSET 0.000000 22.523010 0.000000
					}
				}
				JOINT newVegas:Right_Peck
				{
					OFFSET -17.239599 -5.132202 25.482599
					CHANNELS 3 Xrotation Yrotation Zrotation
					End Site
					{
						OFFSET 0.000000 22.523010 0.000000
					}
				}
				JOINT newVegas:Right_Collar
				{
					OFFSET -18.625099 8.655792 8.828100
					CHANNELS 3 Xrotation Yrotation Zrotation
					JOINT newVegas:Right_Collar1
					{
						OFFSET -14.783401 10.539993 -1.259500
						CHANNELS 3 Xrotation Yrotation Zrotation
						End Site
						{
							OFFSET 0.000000 18.199631 0.000000
						}
					}
				}
			}
		}
		JOINT newVegas:Belly
		{
			OFFSET 0.000000 -6.540398 9.014299
			CHANNELS 3 Xrotation Yrotation Zrotation
			End Site
			{
				OFFSET 0.000000 11.566666 0.000000
			}
		}
	}
	JOINT newVegas:ElvisFacialAnim_Joint
	{
		OFFSET 1.000000 -95.330101 -8.825800
		CHANNELS 3 Xrotation Yrotation Zrotation
		End Site
		{
			OFFSET 0.000000 35.315800 0.000000
		}
	}
}
MOTION
Frames: 4
Frame Time: 0.033333
-2.741409 77.453568 -204.904846 42.669548 -69.179120 36.906555 -0.000001 -0.000001 0.000000 -54.307743 0.647285 36.085064 70.956192 -6.709068 0.941278 -26.666688 6.135697 -20.758719 -0.000000 -0.000002 0.000000 -0.000002 0.000002 0.000002 -45.507969 -7.289067 -36.900671 43.166717 9.380631 -2.987716 -12.043945 1.346462 32.219870 0.000000 -0.000000 -0.000000 0.000001 -0.000000 -0.000002 15.920882 -2.770266 -8.999221 7.889562 0.190187 -3.543504 6.689361 0.116658 -3.999441 -0.744136 1.543539 0.924097 -0.744137 1.543553 0.924065 0.000001 0.000001 -0.000000 -0.744100 1.543470 0.924101 -0.744123 1.543652 0.924074 0.000001 0.000002 -0.000003 0.000001 0.000001 0.000001 0.652639 -5.315050 -19.104157 -57.569110 37.969332 -18.340665 1.722642 -45.323336 0.787831 11.963969 -21.602338 21.214013 40.109941 -15.297170 -0.360496 5.639826 28.097930 11.338835 -0.000001 0.000003 -0.000004 6.882249 2.840066 -61.140411 8.248002 7.640059 -89.897871 0.000001 -0.000000 -0.000000 -2.345519 4.688859 -62.655217 8.754125 9.897070 -87.051294 -0.000001 0.000001 0.000000 -9.042461 10.045663 -60.766185 8.524110 9.508811 -66.893049 -0.000000 -0.000001 0.000001 -17.946899 14.755000 -51.485846 8.868418 8.667044 -84.811975 -0.000002 -0.000005 -0.000000 -0.000001 -0.000002 0.000002 -0.000001 -0.000002 0.000002 -0.000002 -0.000002 0.000002 -0.000002 0.000002 0.000001 -0.000001 0.000001 -0.000001 -0.000002 0.000002 0.000001 -0.000003 0.000002 0.000001 1.103266 3.008553 8.852897 -3.729173 9.430458 49.177881 -20.681050 38.901807 22.782974 -26.550947 10.501166 -16.804944 -24.147143 -10.688513 17.925104 2.364507 -23.806020 -8.771474 0.000001 -0.000000 -0.000000 0.113426 2.724812 -13.275121 0.133922 -0.896629 10.731710 0.000002 -0.000002 0.000003 0.361314 -4.682613 -5.103790 1.302326 -3.901607 21.898217 0.000001 0.000002 -0.000001 0.284011 -11.573914 -3.764316 1.259123 -2.583325 19.158052 -0.000002 0.000001 -0.000000 1.981482 -17.930075 3.588357 2.994181 -0.852576 11.144176 -0.000000 -0.000002 -0.000000 -0.000000 -0.000002 -0.000001 -0.000000 0.000001 0.000000 -0.000000 -0.000001 -0.000001 -0.000002 0.000003 0.000002 -0.000002 0.000004 0.000003 -0.000002 0.000003 0.000002 -0.000002 0.000004 0.000003 -0.000001 -0.000001 -0.000001 -0.000001 -0.000001 -0.000001 -0.000001 -0.000001 -0.000001 -0.000001 -0.000001 -0.000001 -0.000001 -0.000001 -0.000001 -0.000001 -0.000001 -0.000001 -0.000001 -0.000001 -0.000001 -0.000001 -0.000000 -0.000000 -0.000001 -0.000001 0.000000 
-2.684349 78.070770 -206.359375 41.925313 -69.287638 36.808767 -0.000000 -0.000000 0.000000 -53.200951 1.369811 36.325227 67.445461 -6.707895 0.968069 -23.966565 5.963374 -21.745961 0.000000 0.000002 0.000000 0.000000 0.000001 -0.000001 -46.562069 -7.292246 -36.352418 44.961397 9.212242 -3.212995 -12.752390 1.737306 30.766748 0.000000 0.000000 0.000000 0.000000 0.000001 0.000003 15.283815 -2.494877 -8.252320 7.572463 0.224541 -3.418175 6.889756 0.213076 -3.778189 -0.740313 1.499736 0.917855 -0.740311 1.499755 0.917832 -0.000001 -0.000001 0.000002 -0.740307 1.499726 0.917842 -0.740285 1.499756 0.917846 0.000000 -0.000001 0.000001 -0.000001 -0.000001 0.000002 0.710176 -5.250489 -18.768241 -58.095957 36.256229 -18.028745 1.671550 -42.029043 0.681076 11.039849 -21.527831 20.011676 40.109948 -15.297172 -0.360499 5.639826 28.097928 11.338834 -0.000001 0.000000 -0.000001 6.882249 2.840067 -61.140418 8.248002 7.640058 -89.897871 0.000001 -0.000001 0.000002 -2.345519 4.688859 -62.655217 8.754123 9.897066 -87.051301 -0.000000 0.000002 -0.000001 -9.042458 10.045661 -60.766185 8.524107 9.508807 -66.893049 0.000001 -0.000001 -0.000001 -17.946903 14.755002 -51.485853 8.868422 8.667042 -84.811975 -0.000001 -0.000003 0.000001 -0.000000 0.000002 -0.000000 -0.000000 0.000002 -0.000000 -0.000001 0.000002 0.000000 -0.000000 0.000000 -0.000001 0.000000 -0.000000 -0.000003 -0.000000 0.000000 -0.000001 -0.000001 0.000001 -0.000002 1.123846 3.035532 8.855567 -2.051301 9.136758 47.955349 -21.099732 39.966790 24.019322 -26.805462 9.509424 -18.602188 -23.742832 -10.576022 17.760015 2.364475 -23.806013 -8.771451 0.000002 -0.000000 -0.000000 0.080511 2.688104 -13.005192 0.127342 -0.861518 10.483204 0.000000 0.000001 0.000005 0.358349 -4.706855 -4.956778 1.306554 -3.909195 21.939478 0.000004 -0.000001 -0.000001 0.301268 -11.578015 -3.612593 1.267895 -2.607578 19.305497 -0.000001 0.000003 -0.000003 1.998222 -17.980879 3.737181 2.998281 -0.878259 11.291362 -0.000001 0.000003 0.000001 0.000003 0.000001 0.000002 0.000000 -0.000000 0.000001 0.000003 0.000001 0.000002 -0.000001 0.000000 0.000002 -0.000001 0.000000 0.000002 -0.000001 0.000000 0.000002 -0.000001 0.000001 0.000002 0.000002 0.000000 0.000002 0.000002 0.000000 0.000002 0.000002 0.000000 0.000002 0.000002 0.000000 0.000002 0.000002 0.000000 0.000002 0.000002 0.000000 0.000002 0.000002 0.000000 0.000002 -0.000001 -0.000001 0.000001 -0.000000 -0.000000 0.000000 
-2.660051 78.685181 -207.502075 40.707077 -69.500904 36.217351 -0.000000 0.000002 -0.000000 -51.727990 2.059886 36.233259 64.200698 -6.719357 0.996659 -21.691400 6.068419 -22.506465 0.000000 0.000000 -0.000000 -0.000002 -0.000004 0.000002 -47.136686 -7.626931 -36.088022 46.051673 9.444069 -3.368524 -13.172969 1.972736 29.458780 -0.000000 -0.000000 -0.000000 0.000000 -0.000000 0.000001 14.556800 -2.240581 -7.561220 7.113629 0.255382 -3.295277 6.851536 0.294662 -3.559217 -0.737568 1.457576 0.911473 -0.737537 1.457553 0.911475 -0.000004 0.000001 -0.000000 -0.737478 1.457531 0.911482 -0.737667 1.457614 0.911465 -0.000001 0.000001 -0.000000 -0.000004 0.000001 0.000001 0.770663 -5.175526 -18.426423 -58.067727 35.533786 -17.832685 1.664926 -40.119210 0.653616 10.374677 -20.885467 18.824380 40.109941 -15.297170 -0.360492 5.639819 28.097923 11.338828 -0.000000 0.000000 -0.000001 6.882248 2.840065 -61.140411 8.248004 7.640060 -89.897871 0.000001 0.000000 0.000001 -2.345520 4.688858 -62.655217 8.754126 9.897063 -87.051294 -0.000001 0.000001 0.000000 -9.042452 10.045660 -60.766178 8.524109 9.508813 -66.893049 0.000002 0.000001 -0.000003 -17.946901 14.754998 -51.485850 8.868422 8.667046 -84.811968 0.000002 -0.000005 -0.000001 -0.000001 -0.000001 0.000001 -0.000001 -0.000001 0.000001 -0.000002 -0.000001 0.000001 -0.000000 -0.000001 -0.000003 0.000000 -0.000001 -0.000003 -0.000000 -0.000001 -0.000003 -0.000001 0.000000 -0.000003 1.144521 3.120794 8.857058 -0.575495 8.469878 46.973940 -21.317849 40.231259 24.539633 -26.686367 8.620243 -19.511789 -23.177135 -10.420888 17.531098 2.364466 -23.806008 -8.771416 0.000000 -0.000001 0.000001 0.049933 2.633594 -12.628953 0.120563 -0.824702 10.223588 -0.000001 -0.000002 -0.000000 0.355128 -4.740449 -4.751326 1.311445 -3.917225 21.997044 0.000000 -0.000002 -0.000001 0.325613 -11.584119 -3.400732 1.280054 -2.641755 19.511371 0.000000 0.000001 -0.000000 2.011382 -18.034964 3.944138 3.003694 -0.912975 11.496876 -0.000003 0.000002 -0.000002 0.000002 0.000003 0.000002 0.000002 0.000001 0.000002 0.000002 0.000003 0.000002 0.000001 0.000003 0.000002 0.000001 0.000003 0.000003 0.000001 0.000003 0.000002 0.000001 0.000003 0.000003 -0.000000 -0.000001 -0.000003 -0.000000 -0.000001 -0.000003 -0.000000 -0.000001 -0.000003 -0.000000 -0.000001 -0.000003 -0.000000 -0.000001 -0.000003 -0.000000 -0.000001 -0.000003 -0.000000 -0.000001 -0.000003 0.000000 -0.000001 0.000001 -0.000000 0.000002 -0.000000 
-2.622839 79.307732 -208.353302 37.895256 -69.738199 34.138040 -0.000000 -0.000002 0.000000 -49.940885 2.836615 35.811597 61.218945 -6.935323 1.015375 -19.704916 6.169397 -22.878624 -0.000000 -0.000003 0.000000 0.000001 0.000005 -0.000001 -46.877897 -8.179170 -36.267307 46.656479 9.779410 -3.495634 -13.500296 2.076639 28.458326 -0.000000 -0.000000 -0.000000 0.000001 0.000000 -0.000002 13.837696 -2.005370 -6.907330 6.632177 0.283532 -3.183397 6.763015 0.365230 -3.357794 -0.737768 1.419006 0.905958 -0.737787 1.419005 0.905958 0.000002 -0.000001 -0.000001 -0.737772 1.419030 0.905954 -0.737671 1.419006 0.905954 -0.000003 -0.000000 0.000001 0.000002 -0.000001 -0.000000 0.833534 -5.090954 -18.079205 -57.375850 35.533844 -18.161116 1.769021 -39.726265 0.752246 10.073540 -19.462988 17.797697 40.109941 -15.297172 -0.360497 5.639824 28.097933 11.338842 -0.000004 -0.000002 -0.000003 6.882251 2.840064 -61.140418 8.248004 7.640059 -89.897871 0.000000 -0.000000 0.000001 -2.345522 4.688857 -62.655217 8.754120 9.897065 -87.051294 -0.000002 0.000000 0.000000 -9.042459 10.045660 -60.766185 8.524107 9.508810 -66.893049 0.000001 0.000001 0.000001 -17.946906 14.755003 -51.485846 8.868418 8.667044 -84.811968 0.000000 -0.000005 -0.000001 0.000003 0.000001 -0.000005 0.000003 0.000001 -0.000005 0.000003 0.000001 -0.000005 0.000001 -0.000001 0.000003 0.000001 -0.000001 0.000001 0.000001 -0.000001 0.000003 -0.000000 -0.000000 0.000002 1.163486 3.236067 8.857521 0.510029 7.567481 46.283722 -21.186530 39.386139 24.067012 -26.287781 7.870666 -19.462428 -22.463457 -10.228951 17.245773 2.364395 -23.806063 -8.771352 -0.000000 -0.000002 -0.000001 0.021068 2.563116 -12.156039 0.113746 -0.786398 9.953837 -0.000001 0.000001 0.000002 0.352239 -4.782342 -4.492732 1.316482 -3.927576 22.069595 0.000000 0.000001 -0.000001 0.356290 -11.592416 -3.134166 1.295432 -2.683777 19.770515 -0.000001 0.000001 -0.000001 2.019629 -18.091923 4.203503 3.011802 -0.956690 11.755509 0.000001 -0.000000 0.000000 -0.000003 -0.000000 -0.000003 -0.000003 -0.000000 -0.000001 -0.000003 -0.000000 -0.000003 0.000001 -0.000003 -0.000001 0.000002 -0.000002 -0.000001 0.000001 -0.000003 -0.000001 0.000002 -0.000002 -0.000001 -0.000001 0.000003 0.000001 -0.000001 0.000003 0.000001 -0.000001 0.000003 0.000001 -0.000001 0.000003 0.000001 -0.000001 0.000003 0.000001 -0.000001 0.000003 0.000001 -0.000001 0.000003 0.000001 0.000002 -0.000000 0.000000 -0.000000 -0.000002 0.000000 
